<svg width="32" height="32" viewBox="0 0 32 32" xmlns="http://www.w3.org/2000/svg" class="h-full w-full"><rect width="32" height="32" x="0" y="0" rx="30" fill="transparent" stroke="transparent" stroke-width="0" stroke-opacity="100%" paint-order="stroke"></rect><svg width="32px" height="32px" viewBox="0 0 36 36" x="0" y="0" role="img" style="display:inline-block;vertical-align:middle" xmlns="http://www.w3.org/2000/svg"><g><path fill="#69608a" d="M36 32a4 4 0 0 1-4 4H4a4 4 0 0 1-4-4V4a4 4 0 0 1 4-4h28a4 4 0 0 1 4 4v28z"></path><path fill="#FFF" d="M29.28 6.362a2.502 2.502 0 0 0-3.458.736L14.936 23.877l-5.029-4.65a2.5 2.5 0 1 0-3.394 3.671l7.209 6.666c.48.445 1.09.665 1.696.665c.673 0 1.534-.282 2.099-1.139c.332-.506 12.5-19.27 12.5-19.27a2.5 2.5 0 0 0-.737-3.458z"></path></g></svg></svg>